PathFileType	4	(X/Y/Z)	58_1_16_p1_0-212_filt_butterworth.trc
DataRate	CameraRate	NumFrames	NumMarkers	Units	OrigDataRate	OrigDataStartFrame	OrigNumFrames
39.0	39.0	7	27	m	39.0	53	212
Frame#	Time	RHip			RKnee			RAnkle			RBigToe			RSmallToe			RHeel			LHip			LKnee			LAnkle			LBigToe			LSmallToe			LHeel			Neck			Head			Nose			RShoulder			RElbow			RWrist			RThumb			RIndex			RPinky			LShoulder			LElbow			LWrist			LThumb			LIndex			LPinky			
		X1	Y1	Z1	X2	Y2	Z2	X3	Y3	Z3	X4	Y4	Z4	X5	Y5	Z5	X6	Y6	Z6	X7	Y7	Z7	X8	Y8	Z8	X9	Y9	Z9	X10	Y10	Z10	X11	Y11	Z11	X12	Y12	Z12	X13	Y13	Z13	X14	Y14	Z14	X15	Y15	Z15	X16	Y16	Z16	X17	Y17	Z17	X18	Y18	Z18	X19	Y19	Z19	X20	Y20	Z20	X21	Y21	Z21	X22	Y22	Z22	X23	Y23	Z23	X24	Y24	Z24	X25	Y25	Z25	X26	Y26	Z26	X27	Y27	Z27	
53	1.358974358974359	0.31409057718159783	0.4874299495330523	0.9949557929941899	0.3058793062244247	0.5804428101950365	1.4448807893338838	0.3366966931702401	0.7544600879543796	1.8997315333253588	0.29387793844753807	0.5465684119561506	1.9593508338492012	0.3622846785568853	0.5727396003945844	1.941703356292316	0.3043796960812206	0.8599441756040963	1.9625291283660304	0.11318289626539751	0.5229038075019607	1.004425517967355	0.1080502566295567	0.6032195486631612	1.4669299102331173	0.11414570393498602	0.7296921364843064	1.8872271556997462	0.12253736731208777	0.5123766970278502	1.9250230306155234	0.07185437917065723	0.5915457697627301	1.947809995752296	0.14380946043424808	0.8006151631880822	1.9422962572449616	0.22478614103710648	0.344294856237042	0.4151382899981966	0.23590147148229712	0.2880053692980584	0.18276257083573638	0.24374404778778969	0.25314855337271897	0.31542372826810716	0.3539297294336083	0.3660532996327693	0.4966605056117779	0.3911619271737554	0.11338806608430271	0.6384412171057375	0.42808555984772967	0.06343517402786701	0.4377608764856081	0.4327971440777455	0.08591334997150546	0.3481457233010994	0.4620731257948275	0.1208346909488481	0.3240335920961983	0.4630362189127687	0.06945234896981693	0.3459280783233165	0.05889070187405293	0.3820950358593788	0.4950752950021009	-0.0941682660450362	0.40447918468121646	0.7075428124652733	0.012830539994093424	0.2744926418489777	0.8695055827088656	0.08934389452467437	0.23381421980704953	0.9409410641577287	0.07567888837912833	0.2190073356445262	0.9588229067824101	0.0345193799237882	0.2393351008107365	0.9704539721788281
54	1.3846153846153846	0.3193638288206384	0.5023109788276598	0.9892486441053576	0.3135435228885213	0.5993580464162478	1.4475015467542378	0.3381015848263229	0.7560800328042083	1.894177265787448	0.2905475010207565	0.5471071535805969	1.957531565981259	0.3620564187619829	0.5709204373636569	1.941564552071661	0.303322334944474	0.8579207083634744	1.95645207070796	0.11272221305505073	0.5367928590888225	0.9977596627153407	0.11126937426321015	0.616072489068273	1.4624962280867884	0.11531310535520509	0.7301700291046634	1.8823151127376452	0.12121134720428574	0.510020526783644	1.9217042857268563	0.07027461059559054	0.5960782448080792	1.9494512595896283	0.14531085094803717	0.8005433053017523	1.9412526909713923	0.21214464685994805	0.325021323066262	0.41161951515552075	0.22870486884259053	0.2885617699705179	0.17812420598574477	0.23375757281609147	0.24229680669051307	0.3024284970920052	0.3383842585691946	0.3424870417533232	0.48648393088995684	0.34571888828475117	0.038494102760671056	0.5939169063138879	0.3865955180873014	-0.06130713491805888	0.3922524998742638	0.4085147620304358	-0.04773863498238915	0.2867420767808724	0.42437525353932065	-0.05110769144574111	0.2614419201383124	0.4176751035925832	-0.15294068635314462	0.3072454313129649	0.056909332719002934	0.38683959968354076	0.49944487138055443	-0.0972861381126662	0.4523841370459656	0.7102891626814044	7.454726594845326e-05	0.2931296493332632	0.8633374763908236	0.06994462038286578	0.24297502034004737	0.9297952642414931	0.055356801556148874	0.23060606525537317	0.9499222086785657	0.010365565283274994	0.2750412202127305	0.9649078127080887
55	1.4102564102564104	0.31738079303713146	0.5095544672874888	0.988988451378175	0.3170955772090595	0.6066569758814513	1.4495464160016118	0.3383296531787832	0.7558889790302156	1.8929059032048334	0.2894571487595467	0.54847571505707	1.9562184781647387	0.3624302522465368	0.5713263430710038	1.9416199952530904	0.30300786471968455	0.858763161910695	1.9534636429949181	0.11411370942765892	0.5343848987201573	0.9976140253291901	0.1133215789918621	0.615531256237482	1.4620260522392716	0.11770020880646785	0.7323604318318038	1.8814701666152305	0.12146864930667574	0.5094218360088346	1.9214700178340895	0.07039504606391793	0.5960812614493889	1.9495425548184566	0.14661704912796347	0.7999685837161004	1.9380085478564109	0.20826687623835236	0.31857420257453717	0.4106175450397035	0.2265034956687651	0.28413649929880636	0.1831288745793707	0.23054821790386815	0.22782193942123724	0.30097770543593516	0.33037360046512765	0.32474992570035494	0.4868850507915652	0.33443532219119054	0.024256858785643626	0.5713729390836054	0.3539413354092912	-0.11020585367765831	0.3847905783977623	0.3716853197483465	-0.09562733432715484	0.2709619285766843	0.3870501365104137	-0.13695627981074737	0.25126698344454257	0.38914910520861534	-0.21649145138127668	0.3099389196331262	0.05893954236662502	0.39488292701420924	0.5007567162055445	-0.09651547913873668	0.46916724701055035	0.7104192670292604	-0.0031257385535735736	0.29261708662037056	0.8618278303838828	0.06319591740290562	0.23992878146582752	0.9248924501005089	0.04957691017213393	0.2249436686302062	0.9484254003281227	0.0005273599598379808	0.290084628978893	0.9667962747348791
56	1.435897435897436	0.31865731508406236	0.5117705269669957	0.990399675568957	0.32188623239548975	0.6185818480135986	1.4530271317299301	0.338420807724474	0.7572190624396541	1.8960894226924627	0.2895871829587332	0.5487086245783432	1.9550217122186575	0.3625656521227213	0.5721596682367358	1.9416807954178879	0.3036997666501906	0.8604136349655491	1.9538796439859745	0.12012096874870828	0.5248432208354586	0.9965338520781457	0.11681439436984464	0.6135384963340987	1.462784253223009	0.1191615837011405	0.7337188600363468	1.8822801573815817	0.12304450016861931	0.5103915542147922	1.9223421997724843	0.07062102995474136	0.5956830520542921	1.9494287035679978	0.14741411538301938	0.7995975385620837	1.9333874237656068	0.20979018444039552	0.3281725460588103	0.4087862655602977	0.22383741736559012	0.27543527196793827	0.1883830190007938	0.22655256454951334	0.22358569984668078	0.30316646087380444	0.32999049469696495	0.3207415429085604	0.48804771241739336	0.32800387227071526	0.010236533776078739	0.5512810481404615	0.3205966817680449	-0.1588157089650753	0.39077587740526476	0.30722703698915	-0.1654012791282258	0.28817051558518375	0.34463288081538734	-0.21760023344769847	0.269149751292537	0.34694800299970163	-0.19580549112957968	0.31514839057454663	0.06126162960207962	0.40574596779131583	0.5010315254140735	-0.08884065335316509	0.4885211576644677	0.7106114602221921	-0.007606992570131323	0.2960425477269641	0.8614171719167476	0.056708843577448514	0.2364327843859	0.924351910417968	0.045679122531088585	0.22832895182241242	0.9498481022224482	-0.008331500617892607	0.29304234270008667	0.968140778924893
57	1.4615384615384617	0.3251620135328309	0.5114867677402761	0.9909942601996451	0.3279061663903592	0.6324711443187376	1.4567252933815373	0.3390392386788869	0.7583489780514505	1.8980640247003537	0.2899461570900848	0.5482945230092671	1.9527571159278754	0.3614530726718289	0.5718798100763359	1.9413266117625683	0.30450671541894403	0.8601336711363896	1.9544094458645818	0.12672109102560705	0.5198983349727027	0.9937012270013926	0.1231421260075733	0.6155007148867889	1.4632067491379686	0.1189209368541912	0.7330475740731457	1.8823219180639563	0.1253394529056513	0.5117133175583831	1.9228219414322871	0.07048123238780796	0.5961151916888215	1.9497123589163197	0.14633155858196767	0.7996333323124039	1.9313757502618538	0.21045622417989984	0.33932492767737477	0.4098929324567223	0.21971801128296214	0.27218231298368933	0.1882888104076803	0.22055410905321338	0.22718802972852203	0.30445083575602533	0.3317995996096665	0.3232487156503974	0.48587429458733444	0.31584347733959856	-0.012011603968852098	0.5349962287757096	0.28612146805652994	-0.2141008218170548	0.40876554173244517	0.23821255647936515	-0.2629162584092036	0.3355168318857304	0.29652442131230794	-0.3015918884126113	0.3102132761058003	0.28567985544304975	-0.23610379134580248	0.3429993336598856	0.06233764876504927	0.4065110348885591	0.5036150061359141	-0.0748663642531053	0.516955375398588	0.7110734575247831	-0.014290112324978737	0.31110711240302	0.8619821707016204	0.044860128770457364	0.23875831950308657	0.9272813026696644	0.03590718821960829	0.24843558313012193	0.9539578791464222	-0.01949564216151582	0.29671226543110735	0.9680168257603402
58	1.4871794871794872	0.3301798536867007	0.5128890121699403	0.9908555277926232	0.33141163502114446	0.6401927272583214	1.458856753444554	0.34055703265874104	0.758170019209441	1.8975668866952249	0.2914238678291564	0.5506626364566253	1.9526456513189099	0.3603189418477732	0.5710786118598812	1.9407383068291555	0.3046403057550013	0.8589839378127387	1.9537720961578	0.13028466347679965	0.521182934927828	0.9921940631433577	0.1288883353996514	0.6216257119096582	1.4632139966692872	0.11851466816726886	0.7321008724827953	1.882046994918165	0.12673434655488372	0.5125182392087095	1.9230465186139323	0.07048325943696027	0.5963189665639452	1.9497680478705504	0.14545551416347613	0.7987132057246188	1.9312250586818247	0.20789975875039735	0.335085319876007	0.4154403102470109	0.21363718408681376	0.2707322529381896	0.18658852551383	0.214918216995688	0.2282125667943018	0.30586938736694214	0.3294668237983529	0.3155306648023816	0.48282334643948666	0.30893560614300697	-0.013214252895821298	0.5272198139486903	0.25782666388720615	-0.2556201994266918	0.43902294101620754	0.20459402730136905	-0.3442961692332681	0.39718867417108594	0.2555910845164897	-0.3667182506887132	0.36862729196140837	0.24857877974499704	-0.35989289677498393	0.40358126816939643	0.062356534501836244	0.39592816148905025	0.5079469162094956	-0.06089694241293436	0.5406282819507309	0.7103551608939174	-0.019542455559954527	0.3303963318056605	0.8646288334180527	0.03201818685338557	0.2538721775712308	0.9327119336688388	0.021285460653402886	0.27260320679116434	0.9590573689369815	-0.02708809429762153	0.2983393823931969	0.9688498788890438
59	1.5128205128205128	0.33153898358035166	0.5156121837642069	0.9897234715617127	0.33231220695148794	0.6427661307317716	1.4592620634850575	0.3412985812898016	0.7578313568833979	1.8972267181431999	0.2931805241587107	0.5567011330196113	1.955843907170132	0.36068892049178175	0.570681656299393	1.940426744268377	0.30433093843430403	0.8586676767263757	1.9528807585085528	0.13136635599095198	0.5244576466051865	0.9906735888537062	0.1304662912581258	0.6280761987690514	1.4613434549808624	0.1186299656686714	0.7320043410858992	1.881947065199447	0.12677040636780337	0.5126494468937033	1.923130797993134	0.07086926595908637	0.5958905429092181	1.9484004315421641	0.1462108073559307	0.7990079176268211	1.9306823903248547	0.20174068957889568	0.32091435099707294	0.41966678682020464	0.20728321777651681	0.26215270728454343	0.18784045838146926	0.2107921514043575	0.22674619563070614	0.3070332019786234	0.32300895861296713	0.2999324779612121	0.48136477539962347	0.30963763506956554	0.011561447517580141	0.5237959242357463	0.24450145727655373	-0.28127106147924996	0.4670849832299011	0.2052387447127005	-0.40429166470428873	0.4464739852781471	0.2296295641926072	-0.41672795964803877	0.4264787989479034	0.24724672127880531	-0.44558826101352705	0.45458204991718343	0.061002422557343415	0.38707697580928907	0.5113401545918429	-0.05173700311951024	0.5549818793628016	0.7099628634422974	-0.024779187475923378	0.3463610283895592	0.8681953419178556	0.021306810157206826	0.2784107649134253	0.9384045362041297	0.00705237061989788	0.2860340429501937	0.9603205034381888	-0.029789906353773404	0.29838461520240045	0.971165996983735
